<?xml version="1.0" encoding="UTF-8"?>
<svg width="512" height="512" viewBox="0 0 512 512" xmlns="http://www.w3.org/2000/svg">
  <defs>
    <linearGradient id="logoGradient" x1="0%" y1="0%" x2="100%" y2="100%">
      <stop offset="0%" stop-color="#3498db" />
      <stop offset="100%" stop-color="#2980b9" />
    </linearGradient>
  </defs>
  <rect width="512" height="512" rx="80" fill="url(#logoGradient)" />
  <g fill="#ffffff">
    <path d="M160 120h192a20 20 0 0 1 20 20v40a20 20 0 0 1-20 20H160a20 20 0 0 1-20-20v-40a20 20 0 0 1 20-20z" />
    <path d="M120 230h272a15 15 0 0 1 15 15v15a15 15 0 0 1-15 15H120a15 15 0 0 1-15-15v-15a15 15 0 0 1 15-15z" />
    <path d="M120 300h272a15 15 0 0 1 15 15v15a15 15 0 0 1-15 15H120a15 15 0 0 1-15-15v-15a15 15 0 0 1 15-15z" />
    <path d="M120 370h180a15 15 0 0 1 15 15v15a15 15 0 0 1-15 15H120a15 15 0 0 1-15-15v-15a15 15 0 0 1 15-15z" />
  </g>
  <text x="256" y="200" font-family="Arial, sans-serif" font-weight="bold" font-size="50" text-anchor="middle" fill="#ffffff">SIRA</text>
</svg>