<?xml version="1.0" encoding="UTF-8"?>
<svg width="300" height="400" viewBox="0 0 300 400" xmlns="http://www.w3.org/2000/svg">
  <title>Creative Resume Template</title>
  <rect width="300" height="400" fill="#ffffff"/>
  
  <!-- Left sidebar -->
  <rect x="0" y="0" width="90" height="400" fill="#2980b9"/>
  
  <!-- Profile circle -->
  <circle cx="45" cy="50" r="30" fill="#1c638e" stroke="#ffffff" stroke-width="2"/>
  <rect x="25" y="95" width="40" height="8" fill="#ffffff"/>
  <rect x="15" y="108" width="60" height="5" fill="#bbdefb"/>
  
  <!-- Contact info -->
  <rect x="15" y="130" width="60" height="8" fill="#ffffff"/>
  <rect x="15" y="145" width="60" height="4" fill="#bbdefb"/>
  <rect x="15" y="155" width="60" height="4" fill="#bbdefb"/>
  <rect x="15" y="165" width="60" height="4" fill="#bbdefb"/>
  <rect x="15" y="175" width="60" height="4" fill="#bbdefb"/>
  
  <!-- Skills -->
  <rect x="15" y="200" width="60" height="8" fill="#ffffff"/>
  <rect x="15" y="215" width="60" height="5" fill="#3498db"/>
  <rect x="15" y="225" width="50" height="5" fill="#3498db"/>
  <rect x="15" y="235" width="40" height="5" fill="#3498db"/>
  <rect x="15" y="245" width="55" height="5" fill="#3498db"/>
  <rect x="15" y="255" width="45" height="5" fill="#3498db"/>
  
  <!-- Right content -->
  <!-- Name and title -->
  <rect x="110" y="30" width="170" height="16" fill="#2c3e50"/>
  <rect x="110" y="50" width="120" height="8" fill="#3498db"/>
  
  <!-- Summary -->
  <rect x="110" y="80" width="80" height="10" fill="#2c3e50"/>
  <rect x="110" y="95" width="170" height="4" fill="#adb5bd"/>
  <rect x="110" y="103" width="170" height="4" fill="#adb5bd"/>
  <rect x="110" y="111" width="170" height="4" fill="#adb5bd"/>
  <rect x="110" y="119" width="120" height="4" fill="#adb5bd"/>
  
  <!-- Experience -->
  <rect x="110" y="145" width="100" height="10" fill="#2c3e50"/>
  <rect x="110" y="165" width="110" height="8" fill="#495057"/>
  <rect x="110" y="180" width="70" height="6" fill="#3498db"/>
  <rect x="210" y="180" width="50" height="6" fill="#6c757d"/>
  <rect x="110" y="190" width="170" height="4" fill="#adb5bd"/>
  <rect x="110" y="198" width="170" height="4" fill="#adb5bd"/>
  <rect x="110" y="206" width="120" height="4" fill="#adb5bd"/>
  
  <rect x="110" y="225" width="110" height="8" fill="#495057"/>
  <rect x="110" y="240" width="70" height="6" fill="#3498db"/>
  <rect x="210" y="240" width="50" height="6" fill="#6c757d"/>
  <rect x="110" y="250" width="170" height="4" fill="#adb5bd"/>
  <rect x="110" y="258" width="170" height="4" fill="#adb5bd"/>
  <rect x="110" y="266" width="120" height="4" fill="#adb5bd"/>
  
  <!-- Education -->
  <rect x="110" y="290" width="100" height="10" fill="#2c3e50"/>
  <rect x="110" y="310" width="110" height="8" fill="#495057"/>
  <rect x="110" y="325" width="70" height="6" fill="#3498db"/>
  <rect x="210" y="325" width="50" height="6" fill="#6c757d"/>
  <rect x="110" y="340" width="170" height="4" fill="#adb5bd"/>
</svg>