<?xml version="1.0" encoding="UTF-8"?>
<svg width="300" height="400" viewBox="0 0 300 400" xmlns="http://www.w3.org/2000/svg">
  <title>Modern Resume Template</title>
  <rect width="300" height="400" fill="#ffffff"/>
  
  <!-- Header with color accent -->
  <rect x="0" y="0" width="300" height="80" fill="#8e44ad"/>
  
  <!-- Name & title centered in header -->
  <rect x="60" y="25" width="180" height="16" fill="#ffffff"/>
  <rect x="90" y="45" width="120" height="8" fill="#d6bcf0"/>
  
  <!-- Main content section -->
  <rect x="30" y="100" width="240" height="280" fill="#ffffff"/>
  
  <!-- Summary section -->
  <rect x="30" y="100" width="100" height="10" fill="#8e44ad"/>
  <rect x="30" y="120" width="240" height="4" fill="#555555"/>
  <rect x="30" y="128" width="240" height="4" fill="#555555"/>
  <rect x="30" y="136" width="180" height="4" fill="#555555"/>
  
  <!-- Experience section with modern design -->
  <rect x="30" y="160" width="100" height="10" fill="#8e44ad"/>
  
  <!-- First experience -->
  <rect x="30" y="180" width="60" height="6" fill="#8e44ad"/>
  <rect x="30" y="190" width="120" height="8" fill="#333333"/>
  <rect x="200" y="190" width="70" height="6" fill="#999999"/>
  
  <rect x="30" y="205" width="240" height="3" fill="#555555"/>
  <rect x="30" y="212" width="240" height="3" fill="#555555"/>
  <rect x="30" y="219" width="180" height="3" fill="#555555"/>
  
  <!-- Second experience -->
  <rect x="30" y="240" width="60" height="6" fill="#8e44ad"/>
  <rect x="30" y="250" width="120" height="8" fill="#333333"/>
  <rect x="200" y="250" width="70" height="6" fill="#999999"/>
  
  <rect x="30" y="265" width="240" height="3" fill="#555555"/>
  <rect x="30" y="272" width="240" height="3" fill="#555555"/>
  <rect x="30" y="279" width="180" height="3" fill="#555555"/>
  
  <!-- Education and skills section -->
  <rect x="30" y="300" width="100" height="10" fill="#8e44ad"/>
  <rect x="30" y="320" width="120" height="8" fill="#333333"/>
  <rect x="200" y="320" width="70" height="6" fill="#999999"/>
  
  <!-- Skills as modern badges -->
  <rect x="30" y="340" width="60" height="6" fill="#8e44ad"/>
  <rect x="30" y="355" width="50" height="20" rx="10" fill="#f3e5f5" stroke="#8e44ad" stroke-width="2"/>
  <rect x="90" y="355" width="50" height="20" rx="10" fill="#f3e5f5" stroke="#8e44ad" stroke-width="2"/>
  <rect x="150" y="355" width="50" height="20" rx="10" fill="#f3e5f5" stroke="#8e44ad" stroke-width="2"/>
  <rect x="210" y="355" width="50" height="20" rx="10" fill="#f3e5f5" stroke="#8e44ad" stroke-width="2"/>
</svg>