<?xml version="1.0" encoding="UTF-8"?>
<svg width="300" height="400" viewBox="0 0 300 400" xmlns="http://www.w3.org/2000/svg">
  <title>Professional Resume Template</title>
  <rect width="300" height="400" fill="#ffffff"/>
  
  <!-- Header section -->
  <rect x="20" y="20" width="260" height="80" fill="#f8f9fa"/>
  <rect x="20" y="100" width="260" height="1" fill="#3498db"/>
  
  <!-- Name -->
  <rect x="30" y="35" width="120" height="14" fill="#2c3e50"/>
  <rect x="30" y="55" width="80" height="8" fill="#3498db"/>
  
  <!-- Contact info -->
  <rect x="180" y="35" width="90" height="6" fill="#6c757d"/>
  <rect x="180" y="45" width="90" height="6" fill="#6c757d"/>
  <rect x="180" y="55" width="90" height="6" fill="#6c757d"/>
  <rect x="180" y="65" width="90" height="6" fill="#6c757d"/>
  
  <!-- Summary section -->
  <rect x="20" y="120" width="80" height="10" fill="#2c3e50"/>
  <rect x="20" y="135" width="260" height="4" fill="#adb5bd"/>
  <rect x="20" y="143" width="260" height="4" fill="#adb5bd"/>
  <rect x="20" y="151" width="180" height="4" fill="#adb5bd"/>
  
  <!-- Experience section -->
  <rect x="20" y="175" width="100" height="10" fill="#2c3e50"/>
  <rect x="20" y="190" width="140" height="8" fill="#495057"/>
  <rect x="220" y="190" width="60" height="6" fill="#6c757d"/>
  <rect x="20" y="202" width="90" height="6" fill="#3498db"/>
  <rect x="20" y="214" width="260" height="4" fill="#adb5bd"/>
  <rect x="20" y="222" width="260" height="4" fill="#adb5bd"/>
  <rect x="20" y="230" width="180" height="4" fill="#adb5bd"/>
  
  <rect x="20" y="245" width="140" height="8" fill="#495057"/>
  <rect x="220" y="245" width="60" height="6" fill="#6c757d"/>
  <rect x="20" y="257" width="90" height="6" fill="#3498db"/>
  <rect x="20" y="269" width="260" height="4" fill="#adb5bd"/>
  <rect x="20" y="277" width="260" height="4" fill="#adb5bd"/>
  <rect x="20" y="285" width="180" height="4" fill="#adb5bd"/>
  
  <!-- Education & Skills section -->
  <rect x="20" y="310" width="100" height="10" fill="#2c3e50"/>
  <rect x="20" y="325" width="120" height="6" fill="#495057"/>
  <rect x="220" y="325" width="60" height="6" fill="#6c757d"/>
  <rect x="20" y="335" width="80" height="6" fill="#3498db"/>
  
  <!-- Skills section -->
  <rect x="20" y="360" width="50" height="10" fill="#2c3e50"/>
  <circle cx="35" cy="380" r="10" fill="#f8f9fa" stroke="#3498db" stroke-width="2"/>
  <circle cx="65" cy="380" r="10" fill="#f8f9fa" stroke="#3498db" stroke-width="2"/>
  <circle cx="95" cy="380" r="10" fill="#f8f9fa" stroke="#3498db" stroke-width="2"/>
  <circle cx="125" cy="380" r="10" fill="#f8f9fa" stroke="#3498db" stroke-width="2"/>
</svg>