<svg width="300" height="420" viewBox="0 0 300 420" xmlns="http://www.w3.org/2000/svg">
  <!-- Creative Template -->
  <rect width="300" height="420" fill="#ffffff"/>
  
  <!-- Colorful Side Bar -->
  <rect x="0" y="0" width="90" height="420" fill="#9b59b6"/>
  
  <!-- Header -->
  <circle cx="45" cy="60" r="30" fill="#ffffff"/>
  <text x="45" y="65" font-family="Arial" font-size="24" font-weight="bold" fill="#9b59b6" text-anchor="middle">JD</text>
  
  <text x="140" y="50" font-family="Arial" font-size="24" font-weight="bold" fill="#333333">JOHN DOE</text>
  <text x="140" y="70" font-family="Arial" font-size="14" fill="#9b59b6">GRAPHIC DESIGNER</text>
  
  <!-- Contact Info (Icons in side bar) -->
  <circle cx="25" cy="120" r="10" fill="#ffffff"/>
  <text x="25" y="125" font-family="Arial" font-size="12" fill="#9b59b6" text-anchor="middle">✉</text>
  <text x="45" y="125" font-family="Arial" font-size="10" fill="#ffffff">EMAIL</text>
  
  <circle cx="25" cy="150" r="10" fill="#ffffff"/>
  <text x="25" y="155" font-family="Arial" font-size="12" fill="#9b59b6" text-anchor="middle">☎</text>
  <text x="45" y="155" font-family="Arial" font-size="10" fill="#ffffff">PHONE</text>
  
  <circle cx="25" cy="180" r="10" fill="#ffffff"/>
  <text x="25" y="185" font-family="Arial" font-size="12" fill="#9b59b6" text-anchor="middle">in</text>
  <text x="45" y="185" font-family="Arial" font-size="10" fill="#ffffff">LINKEDIN</text>
  
  <!-- Main Content -->
  <text x="115" y="120" font-family="Arial" font-size="16" font-weight="bold" fill="#333333">ABOUT ME</text>
  <line x1="115" y1="130" x2="280" y2="130" stroke="#9b59b6" stroke-width="2"/>
  <text x="115" y="145" font-family="Arial" font-size="12" fill="#333333" width="175">Creative designer with a passion for combining aesthetic with functional...</text>
  
  <text x="115" y="180" font-family="Arial" font-size="16" font-weight="bold" fill="#333333">EXPERIENCE</text>
  <line x1="115" y1="190" x2="280" y2="190" stroke="#9b59b6" stroke-width="2"/>
  <text x="115" y="210" font-family="Arial" font-size="14" font-weight="bold" fill="#333333">Senior Designer</text>
  <text x="115" y="225" font-family="Arial" font-size="12" fill="#9b59b6">Creative Studios | 2019 - Present</text>
  <text x="115" y="245" font-family="Arial" font-size="12" fill="#333333">• Led rebrand project for major tech client</text>
  <text x="115" y="260" font-family="Arial" font-size="12" fill="#333333">• Created award-winning social campaigns</text>
  
  <text x="115" y="290" font-family="Arial" font-size="16" font-weight="bold" fill="#333333">EDUCATION</text>
  <line x1="115" y1="300" x2="280" y2="300" stroke="#9b59b6" stroke-width="2"/>
  <text x="115" y="320" font-family="Arial" font-size="14" font-weight="bold" fill="#333333">BFA in Graphic Design</text>
  <text x="115" y="335" font-family="Arial" font-size="12" fill="#9b59b6">School of Design | 2015 - 2019</text>
  
  <text x="115" y="365" font-family="Arial" font-size="16" font-weight="bold" fill="#333333">SKILLS</text>
  <line x1="115" y1="375" x2="280" y2="375" stroke="#9b59b6" stroke-width="2"/>
  
  <!-- Skill Bars -->
  <text x="115" y="395" font-family="Arial" font-size="12" fill="#333333">Adobe Suite</text>
  <rect x="185" y="385" width="90" height="10" rx="5" fill="#eeeeee"/>
  <rect x="185" y="385" width="80" height="10" rx="5" fill="#9b59b6"/>
</svg>