<?xml version="1.0" encoding="UTF-8"?>
<svg width="300" height="400" viewBox="0 0 300 400" xmlns="http://www.w3.org/2000/svg">
  <title>Executive Resume Template</title>
  <rect width="300" height="400" fill="#ffffff"/>
  
  <!-- Header section -->
  <rect x="0" y="0" width="300" height="80" fill="#1a1a1a"/>
  
  <!-- Name - Large and executive style -->
  <rect x="30" y="25" width="180" height="18" fill="#ffffff"/>
  <rect x="30" y="48" width="140" height="8" fill="#b3b3b3"/>
  
  <!-- Divider -->
  <rect x="0" y="80" width="300" height="10" fill="#aa0000"/>
  
  <!-- Content in top area -->
  <rect x="30" y="110" width="240" height="270" fill="#ffffff"/>
  
  <!-- Summary section with elegant divider -->
  <rect x="30" y="110" width="120" height="12" fill="#1a1a1a"/>
  <rect x="30" y="130" width="240" height="4" fill="#555555"/>
  <rect x="30" y="138" width="240" height="4" fill="#555555"/>
  <rect x="30" y="146" width="240" height="4" fill="#555555"/>
  <rect x="30" y="154" width="140" height="4" fill="#555555"/>
  
  <!-- Executive experience area -->
  <rect x="30" y="180" width="130" height="12" fill="#1a1a1a"/>
  
  <!-- Experience 1 - Executive position -->
  <rect x="30" y="202" width="130" height="8" fill="#333333"/>
  <rect x="30" y="215" width="90" height="8" fill="#aa0000"/>
  <rect x="200" y="202" width="70" height="6" fill="#777777"/>
  
  <rect x="30" y="230" width="240" height="3" fill="#555555"/>
  <rect x="30" y="237" width="240" height="3" fill="#555555"/>
  <rect x="30" y="244" width="240" height="3" fill="#555555"/>
  <rect x="30" y="251" width="180" height="3" fill="#555555"/>
  
  <!-- Divider -->
  <rect x="30" y="265" width="240" height="1" fill="#cccccc"/>
  
  <!-- Experience 2 - Previous role -->
  <rect x="30" y="277" width="130" height="8" fill="#333333"/>
  <rect x="30" y="290" width="90" height="8" fill="#aa0000"/>
  <rect x="200" y="277" width="70" height="6" fill="#777777"/>
  
  <rect x="30" y="305" width="240" height="3" fill="#555555"/>
  <rect x="30" y="312" width="240" height="3" fill="#555555"/>
  <rect x="30" y="319" width="180" height="3" fill="#555555"/>
  
  <!-- Education and qualifications - Executive style -->
  <rect x="30" y="340" width="120" height="12" fill="#1a1a1a"/>
  <rect x="30" y="360" width="140" height="6" fill="#333333"/>
  <rect x="30" y="370" width="90" height="6" fill="#aa0000"/>
  <rect x="200" y="360" width="70" height="6" fill="#777777"/>
</svg>