<?xml version="1.0" encoding="UTF-8"?>
<svg width="300" height="400" viewBox="0 0 300 400" xmlns="http://www.w3.org/2000/svg">
  <title>Minimal Resume Template</title>
  <rect width="300" height="400" fill="#ffffff"/>
  
  <!-- Header with name, minimal design -->
  <rect x="30" y="40" width="240" height="20" fill="#000000"/>
  <rect x="30" y="70" width="120" height="8" fill="#999999"/>
  
  <!-- Simple divider -->
  <rect x="30" y="100" width="240" height="1" fill="#000000"/>
  
  <!-- Contact info, horizontally aligned -->
  <rect x="30" y="120" width="30" height="4" fill="#555555"/>
  <rect x="70" y="120" width="30" height="4" fill="#555555"/>
  <rect x="110" y="120" width="30" height="4" fill="#555555"/>
  <rect x="150" y="120" width="30" height="4" fill="#555555"/>
  <rect x="190" y="120" width="30" height="4" fill="#555555"/>
  
  <!-- Summary -->
  <rect x="30" y="145" width="240" height="4" fill="#555555"/>
  <rect x="30" y="153" width="240" height="4" fill="#555555"/>
  <rect x="30" y="161" width="140" height="4" fill="#555555"/>
  
  <!-- Experience Section -->
  <rect x="30" y="190" width="80" height="10" fill="#000000"/>
  
  <!-- Experience 1 -->
  <rect x="30" y="210" width="100" height="8" fill="#333333"/>
  <rect x="30" y="223" width="60" height="5" fill="#555555"/>
  <rect x="210" y="210" width="60" height="5" fill="#999999"/>
  
  <rect x="30" y="238" width="240" height="3" fill="#777777"/>
  <rect x="30" y="245" width="240" height="3" fill="#777777"/>
  <rect x="30" y="252" width="140" height="3" fill="#777777"/>
  
  <!-- Experience 2 -->
  <rect x="30" y="270" width="100" height="8" fill="#333333"/>
  <rect x="30" y="283" width="60" height="5" fill="#555555"/>
  <rect x="210" y="270" width="60" height="5" fill="#999999"/>
  
  <rect x="30" y="298" width="240" height="3" fill="#777777"/>
  <rect x="30" y="305" width="240" height="3" fill="#777777"/>
  <rect x="30" y="312" width="140" height="3" fill="#777777"/>
  
  <!-- Skills section - simple tag style -->
  <rect x="30" y="335" width="50" height="10" fill="#000000"/>
  
  <rect x="30" y="355" width="40" height="18" rx="9" fill="#f5f5f5" stroke="#000000" stroke-width="1"/>
  <rect x="80" y="355" width="40" height="18" rx="9" fill="#f5f5f5" stroke="#000000" stroke-width="1"/>
  <rect x="130" y="355" width="40" height="18" rx="9" fill="#f5f5f5" stroke="#000000" stroke-width="1"/>
  <rect x="180" y="355" width="40" height="18" rx="9" fill="#f5f5f5" stroke="#000000" stroke-width="1"/>
  <rect x="230" y="355" width="40" height="18" rx="9" fill="#f5f5f5" stroke="#000000" stroke-width="1"/>
</svg>